<svg width="37" height="36" viewBox="0 0 37 36" fill="none" xmlns="http://www.w3.org/2000/svg">
<g clip-path="url(#clip0_11186_83962)">
<path d="M18.58 29.775C18.31 30.045 17.83 30.09 17.515 29.775C17.245 29.505 17.2 29.025 17.515 28.71L22.6 23.625L20.485 21.51L15.4 26.595C15.115 26.895 14.635 26.88 14.335 26.595C14.02 26.28 14.065 25.8 14.335 25.53L19.42 20.445L17.305 18.33L12.22 23.415C11.95 23.685 11.47 23.73 11.155 23.415C10.87 23.13 10.87 22.65 11.155 22.35L16.24 17.265L14.11 15.15L9.025 20.235C8.755 20.505 8.275 20.55 7.96 20.235C7.675 19.935 7.675 19.47 7.96 19.17L14.53 12.6L17.335 15.39C18.76 16.815 21.22 16.8 22.645 15.39C24.115 13.92 24.115 11.55 22.645 10.08L19.855 7.29L20.275 6.87C21.445 5.7 23.35 5.7 24.52 6.87L30.88 13.23C32.05 14.4 32.05 16.305 30.88 17.475L18.58 29.775ZM32.995 19.605C35.335 17.265 35.335 13.47 32.995 11.115L26.635 4.755C24.295 2.415 20.5 2.415 18.145 4.755L17.725 5.175L17.305 4.755C14.965 2.415 11.17 2.415 8.815 4.755L3.505 10.065C1.375 12.195 1.18 15.51 2.905 17.85L5.08 15.675C4.495 14.55 4.69 13.125 5.635 12.18L10.945 6.87C12.115 5.7 14.02 5.7 15.19 6.87L20.53 12.21C20.8 12.48 20.845 12.96 20.53 13.275C20.215 13.59 19.735 13.545 19.465 13.275L14.53 8.355L5.83 17.04C4.36 18.495 4.36 20.88 5.83 22.35C6.415 22.935 7.165 23.295 7.96 23.4C8.065 24.18 8.41 24.93 9.01 25.53C9.61 26.13 10.36 26.475 11.14 26.58C11.245 27.36 11.59 28.11 12.19 28.71C12.79 29.31 13.54 29.655 14.32 29.76C14.425 30.57 14.785 31.305 15.37 31.89C16.075 32.595 17.02 32.985 18.025 32.985C19.03 32.985 19.975 32.595 20.68 31.89L32.995 19.605Z" fill="#692985"/>
</g>
<defs>
<clipPath id="clip0_11186_83962">
<rect width="36" height="36" fill="white" transform="translate(0.25)"/>
</clipPath>
</defs>
</svg>
